<svg width="2000" height="1334" viewBox="0 0 2000 1334" fill="none" xmlns="http://www.w3.org/2000/svg">
<path d="M1890.99 1209.28C1910.93 1209.28 1920.25 1217.02 1921.25 1232.51H1909.06V1232.37C1908.34 1224.48 1901.6 1220.04 1891.85 1220.04C1882.1 1220.04 1876.07 1223.48 1876.07 1229.5C1876.07 1234.95 1881.09 1238.11 1891.13 1240.4L1902.61 1242.98C1916.95 1246.14 1924.55 1252.31 1924.55 1263.49C1924.55 1278.12 1912.36 1286.87 1893 1286.87C1874.21 1286.87 1862.31 1278.41 1861.59 1261.77H1873.78C1874.07 1270.95 1881.38 1276.11 1893.72 1276.11C1905.48 1276.11 1911.64 1272.39 1911.64 1265.07C1911.64 1261.77 1910.07 1259.05 1907.05 1257.18C1904.04 1255.32 1897.87 1253.45 1888.55 1251.45C1869.48 1247.43 1863.17 1241.41 1863.17 1230.36C1863.17 1217.31 1874.78 1209.28 1890.99 1209.28Z" fill="#424B52"/>
<path d="M1853.99 1209.28C1854.56 1209.28 1854.99 1209.28 1855.71 1209.28V1222.19C1837.49 1222.19 1828.89 1231.65 1828.89 1252.02V1285.15H1816.7V1211H1828.17V1226.63H1828.46C1834.19 1214.87 1842.37 1209.28 1853.99 1209.28Z" fill="#424B52"/>
<path d="M1765.32 1209.28C1788.12 1209.28 1801.32 1225.49 1801.32 1248.15C1801.32 1271.09 1787.12 1286.87 1765.32 1286.87C1743.81 1286.87 1729.32 1271.81 1729.32 1248.15C1729.32 1224.48 1743.09 1209.28 1765.32 1209.28ZM1742.23 1248.15C1742.23 1264.93 1751.84 1276.11 1765.32 1276.11C1778.66 1276.11 1788.41 1264.93 1788.41 1248.15C1788.41 1231.37 1778.66 1220.04 1765.18 1220.04C1752.27 1220.04 1742.23 1230.94 1742.23 1248.15Z" fill="#424B52"/>
<path d="M1684.86 1209.28C1704.8 1209.28 1714.12 1217.02 1715.12 1232.51H1702.93V1232.37C1702.21 1224.48 1695.47 1220.04 1685.72 1220.04C1675.97 1220.04 1669.94 1223.48 1669.94 1229.5C1669.94 1234.95 1674.96 1238.11 1685 1240.4L1696.48 1242.98C1710.82 1246.14 1718.42 1252.31 1718.42 1263.49C1718.42 1278.12 1706.23 1286.87 1686.87 1286.87C1668.08 1286.87 1656.18 1278.41 1655.46 1261.77H1667.65C1667.94 1270.95 1675.25 1276.11 1687.59 1276.11C1699.35 1276.11 1705.51 1272.39 1705.51 1265.07C1705.51 1261.77 1703.94 1259.05 1700.92 1257.18C1697.91 1255.32 1691.75 1253.45 1682.42 1251.45C1663.35 1247.43 1657.04 1241.41 1657.04 1230.36C1657.04 1217.31 1668.65 1209.28 1684.86 1209.28Z" fill="#424B52"/>
<path d="M1627.68 1182.75H1639.87V1197.66H1627.68V1182.75ZM1627.68 1211H1639.87V1285.15H1627.68V1211Z" fill="#424B52"/>
<path d="M1546.65 1211H1560.27L1581.07 1272.82H1581.36L1601.58 1211H1614.34L1587.24 1285.15H1574.19L1546.65 1211Z" fill="#424B52"/>
<path d="M1521.44 1182.75H1533.63V1285.15H1521.44V1275.11H1521.15C1517.28 1282.71 1508.53 1286.87 1497.49 1286.87C1476.69 1286.87 1463.35 1270.95 1463.35 1247.86C1463.35 1225.2 1475.83 1209.28 1497.06 1209.28C1506.67 1209.28 1516.56 1213.44 1521.15 1220.9H1521.44V1182.75ZM1476.26 1248.72C1476.26 1264.35 1484.87 1276.11 1499.21 1276.11C1513.84 1276.11 1521.87 1264.5 1521.87 1248.15C1521.87 1231.37 1513.41 1220.04 1498.35 1220.04C1484.29 1220.04 1476.26 1231.08 1476.26 1248.72Z" fill="#424B52"/>
<path d="M1402.77 1182.75H1417.83L1457.84 1285.15H1442.78L1431.59 1254.31H1388.28L1376.81 1285.15H1362.75L1402.77 1182.75ZM1410.22 1195.08H1409.94L1392.58 1242.84H1427.29L1410.22 1195.08Z" fill="#424B52"/>
<path d="M1283.11 1209.28C1303.04 1209.28 1312.36 1217.02 1313.37 1232.51H1301.18V1232.37C1300.46 1224.48 1293.72 1220.04 1283.97 1220.04C1274.21 1220.04 1268.19 1223.48 1268.19 1229.5C1268.19 1234.95 1273.21 1238.11 1283.25 1240.4L1294.72 1242.98C1309.07 1246.14 1316.67 1252.31 1316.67 1263.49C1316.67 1278.12 1304.48 1286.87 1285.11 1286.87C1266.33 1286.87 1254.42 1278.41 1253.7 1261.77H1265.9C1266.18 1270.95 1273.5 1276.11 1285.83 1276.11C1297.59 1276.11 1303.76 1272.39 1303.76 1265.07C1303.76 1261.77 1302.18 1259.05 1299.17 1257.18C1296.16 1255.32 1289.99 1253.45 1280.67 1251.45C1261.59 1247.43 1255.28 1241.41 1255.28 1230.36C1255.28 1217.31 1266.9 1209.28 1283.11 1209.28Z" fill="#424B52"/>
<path d="M1209.96 1209.28C1229.9 1209.28 1239.22 1217.02 1240.22 1232.51H1228.03V1232.37C1227.32 1224.48 1220.57 1220.04 1210.82 1220.04C1201.07 1220.04 1195.05 1223.48 1195.05 1229.5C1195.05 1234.95 1200.06 1238.11 1210.1 1240.4L1221.58 1242.98C1235.92 1246.14 1243.52 1252.31 1243.52 1263.49C1243.52 1278.12 1231.33 1286.87 1211.97 1286.87C1193.18 1286.87 1181.28 1278.41 1180.56 1261.77H1192.75C1193.04 1270.95 1200.35 1276.11 1212.69 1276.11C1224.45 1276.11 1230.61 1272.39 1230.61 1265.07C1230.61 1261.77 1229.04 1259.05 1226.02 1257.18C1223.01 1255.32 1216.85 1253.45 1207.52 1251.45C1188.45 1247.43 1182.14 1241.41 1182.14 1230.36C1182.14 1217.31 1193.75 1209.28 1209.96 1209.28Z" fill="#424B52"/>
<path d="M1137.66 1209.28C1148.27 1209.28 1156.59 1213.15 1162.47 1220.75C1168.35 1228.35 1171.22 1238.25 1171.22 1250.3V1251.73H1115.72V1252.59C1115.72 1266.79 1124.47 1276.11 1138.81 1276.11C1149.71 1276.11 1156.02 1270.81 1158.03 1261.63H1170.07C1166.78 1278.12 1155.16 1286.87 1138.38 1286.87C1130.63 1286.87 1124.04 1285.15 1118.73 1281.71C1107.83 1274.54 1102.81 1260.48 1102.81 1247.57C1102.81 1236.67 1105.96 1227.64 1112.56 1220.32C1119.16 1213.01 1127.62 1209.28 1137.66 1209.28ZM1115.72 1240.98H1158.31C1157.6 1229.07 1148.85 1220.04 1136.8 1220.04C1125.33 1220.04 1116.72 1228.35 1115.72 1240.98Z" fill="#424B52"/>
<path d="M1061.55 1209.28C1079.48 1209.28 1087.08 1218.75 1087.08 1235.81V1285.15H1074.89V1234.52C1074.89 1226.35 1069.58 1220.04 1059.69 1220.04C1045.78 1220.04 1037.89 1229.36 1037.89 1242.84V1285.15H1025.7V1211H1037.17V1222.76H1037.46C1042.91 1213.44 1050.65 1209.28 1061.55 1209.28Z" fill="#424B52"/>
<path d="M993.186 1182.75H1005.38V1197.66H993.186V1182.75ZM993.186 1211H1005.38V1285.15H993.186V1211Z" fill="#424B52"/>
<path d="M943.992 1209.28C963.928 1209.28 973.25 1217.02 974.254 1232.51H962.063V1232.37C961.346 1224.48 954.605 1220.04 944.853 1220.04C935.1 1220.04 929.076 1223.48 929.076 1229.5C929.076 1234.95 934.096 1238.11 944.135 1240.4L955.609 1242.98C969.951 1246.14 977.553 1252.31 977.553 1263.49C977.553 1278.12 965.362 1286.87 946 1286.87C927.212 1286.87 915.308 1278.41 914.591 1261.77H926.781C927.068 1270.95 934.383 1276.11 946.717 1276.11C958.478 1276.11 964.645 1272.39 964.645 1265.07C964.645 1261.77 963.067 1259.05 960.055 1257.18C957.043 1255.32 950.876 1253.45 941.554 1251.45C922.479 1247.43 916.168 1241.41 916.168 1230.36C916.168 1217.31 927.785 1209.28 943.992 1209.28Z" fill="#424B52"/>
<path d="M838.195 1211H850.386V1261.48C850.386 1270.09 856.123 1276.11 865.445 1276.11C879.644 1276.11 887.389 1266.79 887.389 1253.31V1211H899.579V1285.15H888.106V1273.39H887.819C882.512 1282.85 874.05 1286.87 863.724 1286.87C846.37 1286.87 838.195 1277.84 838.195 1260.48V1211Z" fill="#424B52"/>
<path d="M740.586 1182.75H784.33C796.951 1182.75 805.556 1185.33 810.002 1190.49C814.592 1195.51 816.887 1201.39 816.887 1207.85C816.887 1218.75 811.293 1226.92 801.684 1230.79V1231.08C814.305 1233.8 821.189 1243.27 821.189 1255.75C821.189 1272.24 808.138 1285.15 790.641 1285.15H740.586V1182.75ZM754.211 1226.78H782.179C795.804 1226.78 803.262 1222.04 803.262 1210.43C803.262 1199.67 798.242 1194.22 782.322 1194.22H754.211V1226.78ZM754.211 1273.68H788.919C799.963 1273.68 807.564 1266.65 807.564 1255.32C807.564 1243.84 799.389 1238.25 784.76 1238.25H754.211V1273.68Z" fill="#424B52"/>
<path d="M1907.09 1024.64H1919.28V1127.05H1907.09V1117.01H1906.8C1902.93 1124.61 1894.18 1128.77 1883.13 1128.77C1862.34 1128.77 1849 1112.85 1849 1089.76C1849 1067.1 1861.48 1051.18 1882.7 1051.18C1892.31 1051.18 1902.21 1055.34 1906.8 1062.79H1907.09V1024.64ZM1861.91 1090.62C1861.91 1106.25 1870.51 1118.01 1884.86 1118.01C1899.48 1118.01 1907.52 1106.39 1907.52 1090.04C1907.52 1073.26 1899.05 1061.93 1884 1061.93C1869.94 1061.93 1861.91 1072.98 1861.91 1090.62Z" fill="#424B52"/>
<path d="M1807.74 1051.18C1825.67 1051.18 1833.27 1060.64 1833.27 1077.71V1127.05H1821.08V1076.42C1821.08 1068.24 1815.77 1061.93 1805.88 1061.93C1791.97 1061.93 1784.08 1071.26 1784.08 1084.74V1127.05H1771.89V1052.9H1783.36V1064.66H1783.65C1789.1 1055.34 1796.84 1051.18 1807.74 1051.18Z" fill="#424B52"/>
<path d="M1723.83 1051.18C1744.77 1051.18 1751.51 1059.5 1751.51 1071.11V1113.85C1751.51 1116.58 1752.8 1118.01 1755.38 1118.01C1756.53 1118.01 1757.96 1117.72 1759.11 1117.29V1126.76C1756.81 1128.05 1753.8 1128.77 1750.36 1128.77C1743.76 1128.77 1740.03 1125.04 1740.03 1117.29C1733.58 1124.9 1724.83 1128.77 1713.93 1128.77C1698.73 1128.77 1689.4 1121.31 1689.4 1107.97C1689.4 1101.37 1691.56 1096.07 1695.86 1092.2C1700.02 1088.18 1709.91 1085.31 1725.83 1083.3C1736.59 1082.01 1739.46 1079.43 1739.46 1074.12C1739.46 1065.95 1734.44 1061.93 1722.97 1061.93C1710.92 1061.93 1705.04 1066.38 1704.46 1075.99H1692.27C1693.13 1059.5 1704.32 1051.18 1723.83 1051.18ZM1702.31 1107.11C1702.31 1114 1707.62 1118.01 1716.65 1118.01C1730.85 1118.01 1739.32 1109.69 1739.32 1101.52V1088.75C1737.31 1090.19 1734.01 1091.33 1730.71 1091.77L1718.23 1093.63C1707.48 1095.21 1702.31 1099.37 1702.31 1107.11Z" fill="#424B52"/>
<path d="M1603.59 1051.18C1623.53 1051.18 1632.85 1058.92 1633.85 1074.41H1621.66V1074.27C1620.95 1066.38 1614.21 1061.93 1604.45 1061.93C1594.7 1061.93 1588.68 1065.38 1588.68 1071.4C1588.68 1076.85 1593.7 1080 1603.74 1082.3L1615.21 1084.88C1629.55 1088.04 1637.15 1094.2 1637.15 1105.39C1637.15 1120.02 1624.96 1128.77 1605.6 1128.77C1586.81 1128.77 1574.91 1120.31 1574.19 1103.67H1586.38C1586.67 1112.85 1593.98 1118.01 1606.32 1118.01C1618.08 1118.01 1624.24 1114.28 1624.24 1106.97C1624.24 1103.67 1622.67 1100.94 1619.66 1099.08C1616.64 1097.22 1610.48 1095.35 1601.15 1093.34C1582.08 1089.33 1575.77 1083.3 1575.77 1072.26C1575.77 1059.21 1587.39 1051.18 1603.59 1051.18Z" fill="#424B52"/>
<path d="M1536.98 1030.67H1549.17V1052.9H1563.95V1063.65H1549.17V1110.12C1549.17 1113.85 1550.32 1115.72 1552.9 1116C1555.34 1116.15 1557.92 1116.29 1560.5 1116.29H1563.95V1127.05H1553.91C1540.43 1127.05 1536.98 1122.74 1536.98 1111.56V1063.65H1524.36V1052.9H1536.98V1030.67Z" fill="#424B52"/>
<path d="M1486.98 1051.18C1504.9 1051.18 1512.51 1060.64 1512.51 1077.71V1127.05H1500.32V1076.42C1500.32 1068.24 1495.01 1061.93 1485.11 1061.93C1471.2 1061.93 1463.31 1071.26 1463.31 1084.74V1127.05H1451.12V1052.9H1462.6V1064.66H1462.88C1468.33 1055.34 1476.08 1051.18 1486.98 1051.18Z" fill="#424B52"/>
<path d="M1403.06 1051.18C1424 1051.18 1430.74 1059.5 1430.74 1071.11V1113.85C1430.74 1116.58 1432.03 1118.01 1434.61 1118.01C1435.76 1118.01 1437.19 1117.72 1438.34 1117.29V1126.76C1436.05 1128.05 1433.03 1128.77 1429.59 1128.77C1422.99 1128.77 1419.27 1125.04 1419.27 1117.29C1412.81 1124.9 1404.06 1128.77 1393.16 1128.77C1377.96 1128.77 1368.64 1121.31 1368.64 1107.97C1368.64 1101.37 1370.79 1096.07 1375.09 1092.2C1379.25 1088.18 1389.15 1085.31 1405.07 1083.3C1415.82 1082.01 1418.69 1079.43 1418.69 1074.12C1418.69 1065.95 1413.67 1061.93 1402.2 1061.93C1390.15 1061.93 1384.27 1066.38 1383.7 1075.99H1371.51C1372.37 1059.5 1383.55 1051.18 1403.06 1051.18ZM1381.55 1107.11C1381.55 1114 1386.85 1118.01 1395.89 1118.01C1410.09 1118.01 1418.55 1109.69 1418.55 1101.52V1088.75C1416.54 1090.19 1413.24 1091.33 1409.94 1091.77L1397.47 1093.63C1386.71 1095.21 1381.55 1099.37 1381.55 1107.11Z" fill="#424B52"/>
<path d="M1330.71 1030.67H1342.9V1052.9H1357.68V1063.65H1342.9V1110.12C1342.9 1113.85 1344.05 1115.72 1346.63 1116C1349.07 1116.15 1351.65 1116.29 1354.23 1116.29H1357.68V1127.05H1347.64C1334.16 1127.05 1330.71 1122.74 1330.71 1111.56V1063.65H1318.09V1052.9H1330.71V1030.67Z" fill="#424B52"/>
<path d="M1280.71 1051.18C1298.63 1051.18 1306.24 1060.64 1306.24 1077.71V1127.05H1294.05V1076.42C1294.05 1068.24 1288.74 1061.93 1278.84 1061.93C1264.93 1061.93 1257.04 1071.26 1257.04 1084.74V1127.05H1244.85V1052.9H1256.33V1064.66H1256.61C1262.06 1055.34 1269.81 1051.18 1280.71 1051.18Z" fill="#424B52"/>
<path d="M1163.72 1052.9H1175.91V1103.38C1175.91 1111.99 1181.65 1118.01 1190.97 1118.01C1205.17 1118.01 1212.92 1108.69 1212.92 1095.21V1052.9H1225.11V1127.05H1213.63V1115.29H1213.35C1208.04 1124.75 1199.58 1128.77 1189.25 1128.77C1171.9 1128.77 1163.72 1119.73 1163.72 1102.38V1052.9Z" fill="#424B52"/>
<path d="M1111.92 1051.18C1134.72 1051.18 1147.92 1067.38 1147.92 1090.04C1147.92 1112.99 1133.72 1128.77 1111.92 1128.77C1090.4 1128.77 1075.92 1113.71 1075.92 1090.04C1075.92 1066.38 1089.69 1051.18 1111.92 1051.18ZM1088.83 1090.04C1088.83 1106.82 1098.43 1118.01 1111.92 1118.01C1125.25 1118.01 1135.01 1106.82 1135.01 1090.04C1135.01 1073.26 1125.25 1061.93 1111.77 1061.93C1098.87 1061.93 1088.83 1072.83 1088.83 1090.04Z" fill="#424B52"/>
<path d="M1032.45 1051.18C1050.37 1051.18 1062.42 1059.78 1064.43 1076.71H1051.81C1049.8 1067.1 1043.2 1061.93 1033.45 1061.93C1018.39 1061.93 1010.36 1072.55 1010.36 1090.9C1010.36 1107.11 1018.53 1118.01 1032.01 1118.01C1043.78 1118.01 1050.8 1111.27 1052.38 1099.94H1064.86C1062.13 1118.44 1050.66 1128.77 1032.16 1128.77C1010.5 1128.77 997.45 1114.14 997.45 1090.9C997.45 1066.81 1010.65 1051.18 1032.45 1051.18Z" fill="#424B52"/>
<path d="M953.978 1051.18C971.905 1051.18 983.953 1059.78 985.961 1076.71H973.34C971.332 1067.1 964.734 1061.93 954.982 1061.93C939.922 1061.93 931.891 1072.55 931.891 1090.9C931.891 1107.11 940.066 1118.01 953.547 1118.01C965.308 1118.01 972.336 1111.27 973.913 1099.94H986.391C983.666 1118.44 972.192 1128.77 953.691 1128.77C932.034 1128.77 918.983 1114.14 918.983 1090.9C918.983 1066.81 932.178 1051.18 953.978 1051.18Z" fill="#424B52"/>
<path d="M858.396 1024.64H873.455L913.47 1127.05H898.411L887.224 1096.21H843.91L832.437 1127.05H818.381L858.396 1024.64ZM865.854 1036.98H865.567L848.213 1084.74H882.921L865.854 1036.98Z" fill="#424B52"/>
<path d="M754.832 1024.64H767.023V1127.05H754.832V1117.01H754.545C750.673 1124.61 741.924 1128.77 730.881 1128.77C710.085 1128.77 696.746 1112.85 696.746 1089.76C696.746 1067.1 709.224 1051.18 730.45 1051.18C740.06 1051.18 749.956 1055.34 754.545 1062.79H754.832V1024.64ZM709.654 1090.62C709.654 1106.25 718.26 1118.01 732.602 1118.01C747.231 1118.01 755.262 1106.39 755.262 1090.04C755.262 1073.26 746.801 1061.93 731.741 1061.93C717.686 1061.93 709.654 1072.98 709.654 1090.62Z" fill="#424B52"/>
<path d="M653.13 1051.18C663.744 1051.18 672.062 1055.05 677.942 1062.65C683.823 1070.25 686.691 1080.15 686.691 1092.2V1093.63H631.187V1094.49C631.187 1108.69 639.936 1118.01 654.278 1118.01C665.178 1118.01 671.488 1112.7 673.496 1103.53H685.544C682.245 1120.02 670.628 1128.77 653.847 1128.77C646.103 1128.77 639.505 1127.05 634.199 1123.6C623.299 1116.43 618.279 1102.38 618.279 1089.47C618.279 1078.57 621.434 1069.53 628.032 1062.22C634.629 1054.91 643.091 1051.18 653.13 1051.18ZM631.187 1082.87H673.783C673.066 1070.97 664.317 1061.93 652.27 1061.93C640.796 1061.93 632.191 1070.25 631.187 1082.87Z" fill="#424B52"/>
<path d="M612.48 1051.18C613.054 1051.18 613.484 1051.18 614.201 1051.18V1064.08C595.987 1064.08 587.382 1073.55 587.382 1093.92V1127.05H575.191V1052.9H586.664V1068.53H586.951C592.688 1056.77 600.863 1051.18 612.48 1051.18Z" fill="#424B52"/>
<path d="M527.989 1051.18C538.602 1051.18 546.921 1055.05 552.801 1062.65C558.681 1070.25 561.55 1080.15 561.55 1092.2V1093.63H506.046V1094.49C506.046 1108.69 514.794 1118.01 529.137 1118.01C540.037 1118.01 546.347 1112.7 548.355 1103.53H560.403C557.104 1120.02 545.487 1128.77 528.706 1128.77C520.962 1128.77 514.364 1127.05 509.058 1123.6C498.158 1116.43 493.138 1102.38 493.138 1089.47C493.138 1078.57 496.293 1069.53 502.89 1062.22C509.488 1054.91 517.95 1051.18 527.989 1051.18ZM506.046 1082.87H548.642C547.925 1070.97 539.176 1061.93 527.129 1061.93C515.655 1061.93 507.05 1070.25 506.046 1082.87Z" fill="#424B52"/>
<path d="M455.213 1030.67H467.404V1052.9H482.176V1063.65H467.404V1110.12C467.404 1113.85 468.551 1115.72 471.133 1116C473.571 1116.15 476.152 1116.29 478.734 1116.29H482.176V1127.05H472.136C458.655 1127.05 455.213 1122.74 455.213 1111.56V1063.65H442.592V1052.9H455.213V1030.67Z" fill="#424B52"/>
<path d="M438.144 1051.18C438.718 1051.18 439.148 1051.18 439.866 1051.18V1064.08C421.651 1064.08 413.046 1073.55 413.046 1093.92V1127.05H400.855V1052.9H412.329V1068.53H412.615C418.352 1056.77 426.527 1051.18 438.144 1051.18Z" fill="#424B52"/>
<path d="M353.223 1051.18C374.163 1051.18 380.903 1059.5 380.903 1071.11V1113.85C380.903 1116.58 382.194 1118.01 384.776 1118.01C385.923 1118.01 387.357 1117.72 388.505 1117.29V1126.76C386.21 1128.05 383.198 1128.77 379.756 1128.77C373.159 1128.77 369.43 1125.04 369.43 1117.29C362.976 1124.9 354.227 1128.77 343.327 1128.77C328.124 1128.77 318.802 1121.31 318.802 1107.97C318.802 1101.37 320.953 1096.07 325.256 1092.2C329.415 1088.18 339.311 1085.31 355.231 1083.3C365.988 1082.01 368.856 1079.43 368.856 1074.12C368.856 1065.95 363.836 1061.93 352.363 1061.93C340.315 1061.93 334.435 1066.38 333.861 1075.99H321.67C322.531 1059.5 333.718 1051.18 353.223 1051.18ZM331.71 1107.11C331.71 1114 337.016 1118.01 346.052 1118.01C360.251 1118.01 368.713 1109.69 368.713 1101.52V1088.75C366.705 1090.19 363.406 1091.33 360.107 1091.77L347.63 1093.63C336.873 1095.21 331.71 1099.37 331.71 1107.11Z" fill="#424B52"/>
<path d="M241.689 1024.64H253.88V1063.8H254.167C257.609 1055.91 267.075 1051.18 277.545 1051.18C295.472 1051.18 303.074 1060.64 303.074 1077.71V1127.05H290.883V1076.42C290.883 1068.24 285.576 1061.93 275.68 1061.93C261.912 1061.93 253.88 1071.26 253.88 1084.74V1127.05H241.689V1024.64Z" fill="#424B52"/>
<path d="M182.215 1022.21C204.589 1022.21 221.369 1034.68 224.381 1055.48H210.756C207.744 1041.42 197.131 1033.68 182.072 1033.68C160.415 1033.68 147.363 1050.75 147.363 1075.13C147.363 1101.09 159.841 1118.01 182.215 1118.01C198.995 1118.01 210.469 1106.39 211.76 1088.47H225.385C222.517 1114.86 206.31 1129.48 181.068 1129.48C166.439 1129.48 154.821 1124.61 146.36 1115C137.898 1105.25 133.738 1092.34 133.738 1076.13C133.738 1060.21 138.041 1047.3 146.79 1037.26C155.539 1027.23 167.299 1022.21 182.215 1022.21Z" fill="#424B52"/>
<path d="M1928.42 772.198L1924.61 780.095C1923.44 782.435 1922.86 783.605 1921.1 783.605C1919.06 783.605 1906.77 775.708 1891.56 775.708C1879.86 775.708 1869.92 781.557 1869.92 795.012C1869.92 827.186 1934.85 818.119 1934.85 863.747C1934.85 891.241 1913.21 905.281 1888.05 905.281C1874.01 905.281 1843.59 897.091 1843.59 891.241C1843.59 889.779 1844.18 888.901 1844.76 887.731L1848.86 878.664C1849.74 876.617 1850.61 876.032 1851.49 876.032C1854.12 876.032 1869.33 886.269 1889.22 886.269C1901.8 886.269 1912.62 879.249 1912.62 865.209C1912.62 834.791 1847.69 841.518 1847.69 797.352C1847.69 773.66 1866.12 756.696 1891.86 756.696C1901.8 756.696 1918.76 761.375 1926.37 765.47C1928.71 766.64 1929.59 767.81 1929.59 769.273C1929.59 770.15 1928.71 771.028 1928.42 772.198Z" fill="#424B52"/>
<path d="M1811.43 800.569V897.676C1811.43 900.016 1810.26 901.186 1807.92 901.186H1792.71C1790.37 901.186 1789.2 900.016 1789.2 897.676V799.984C1789.2 787.407 1785.98 776.292 1770.19 776.292C1751.17 776.292 1738.89 787.7 1731.58 794.134V897.676C1731.58 900.016 1730.41 901.186 1728.07 901.186H1712.86C1710.52 901.186 1709.35 900.016 1709.35 897.676V796.767C1709.35 787.115 1709.35 783.897 1708.18 779.51C1705.84 770.735 1703.5 768.688 1703.5 767.225C1703.5 766.64 1703.79 766.055 1704.96 765.178L1718.12 757.866C1718.71 757.573 1719.59 756.696 1720.46 756.696C1725.73 756.696 1729.24 774.245 1729.53 776.585C1739.18 768.98 1754.39 756.696 1776.62 756.696C1809.09 756.696 1811.43 779.51 1811.43 800.569Z" fill="#424B52"/>
<path d="M1656.83 800.569V897.676C1656.83 900.016 1655.66 901.186 1653.32 901.186H1638.11C1635.77 901.186 1634.6 900.016 1634.6 897.676V799.984C1634.6 787.407 1631.38 776.292 1615.59 776.292C1596.58 776.292 1584.29 787.7 1576.98 794.134V897.676C1576.98 900.016 1575.81 901.186 1573.47 901.186H1558.26C1555.92 901.186 1554.75 900.016 1554.75 897.676V796.767C1554.75 787.115 1554.75 783.897 1553.58 779.51C1551.24 770.735 1548.9 768.688 1548.9 767.225C1548.9 766.64 1549.19 766.055 1550.36 765.178L1563.53 757.866C1564.11 757.573 1564.99 756.696 1565.87 756.696C1571.13 756.696 1574.64 774.245 1574.93 776.585C1584.59 768.98 1599.79 756.696 1622.02 756.696C1654.49 756.696 1656.83 779.51 1656.83 800.569Z" fill="#424B52"/>
<path d="M1500.55 765.178V897.676C1500.55 900.016 1499.38 901.186 1497.04 901.186H1481.83C1479.49 901.186 1478.32 900.016 1478.32 897.676V778.925H1455.5C1453.16 778.925 1451.99 777.755 1451.99 775.415V764.3C1451.99 761.96 1453.16 760.79 1455.5 760.79H1496.74C1499.96 760.79 1500.55 762.545 1500.55 765.178ZM1505.81 709.312C1505.81 718.964 1497.91 727.154 1487.97 727.154C1478.03 727.154 1470.13 719.257 1470.13 709.312C1470.13 699.368 1478.03 691.47 1487.97 691.47C1497.91 691.47 1505.81 699.66 1505.81 709.312Z" fill="#424B52"/>
<path d="M1408.71 704.34L1420.11 897.676C1420.11 900.016 1418.94 901.186 1416.6 901.186H1399.64C1397.3 901.186 1396.13 900.016 1396.13 897.676L1391.45 747.336C1391.16 741.486 1391.45 734.174 1391.74 729.202L1391.16 728.617C1390.87 735.051 1389.99 742.364 1387.65 749.383L1352.26 851.17C1351.09 853.802 1350.5 854.387 1347.87 854.387H1339.09C1336.46 854.387 1335.58 853.802 1334.71 851.17L1300.78 749.383C1298.44 742.364 1297.56 735.051 1297.27 728.617L1296.68 729.202C1296.98 734.174 1297.27 741.486 1296.98 747.336L1292.59 897.676C1292.59 900.016 1291.42 901.186 1289.08 901.186H1272.11C1269.77 901.186 1268.6 900.016 1268.6 897.676L1279.72 704.34C1279.72 702 1280.89 700.83 1283.23 700.83H1302.24C1304.58 700.83 1304.58 701.415 1305.46 703.755L1339.97 804.664C1341.43 809.051 1342.6 816.364 1343.77 822.798H1344.36C1345.82 816.656 1346.99 809.051 1348.45 804.664L1382.97 703.755C1383.85 701.415 1383.85 700.83 1386.19 700.83H1405.2C1407.54 700.83 1408.71 702 1408.71 704.34Z" fill="#424B52"/>
<path d="M1197.53 868.427V785.945C1188.17 780.972 1178.81 776.292 1164.19 776.292C1139.03 776.292 1136.69 804.956 1136.69 833.328C1136.69 857.897 1138.74 885.684 1162.43 885.684C1177.64 885.684 1190.51 872.814 1197.53 868.427ZM1219.76 693.225V854.972C1219.76 868.134 1219.76 876.909 1222.98 884.221C1224.44 887.731 1228.24 893.289 1228.24 895.043C1228.24 896.213 1226.78 896.798 1225.61 897.383L1214.2 904.403C1213.03 904.988 1212.45 905.281 1211.86 905.281C1207.77 905.281 1202.5 892.704 1201.33 888.024C1194.31 892.996 1179.98 905.281 1158.34 905.281C1127.04 905.281 1112.71 870.182 1112.71 833.913C1112.71 791.794 1127.62 756.696 1161.55 756.696C1179.69 756.696 1189.63 761.668 1197.53 766.64V697.028C1197.53 694.98 1198.41 693.81 1199.58 693.518L1213.91 690.008C1216.25 689.423 1215.37 689.715 1217.42 689.423C1219.76 689.423 1219.76 691.763 1219.76 693.225Z" fill="#424B52"/>
<path d="M1054.84 801.154V897.676C1054.84 900.016 1053.67 901.186 1051.33 901.186H1036.12C1033.78 901.186 1032.61 900.016 1032.61 897.676V797.352C1032.61 792.087 1031.73 782.435 1027.64 775.123C1025.3 771.028 1024.42 768.688 1024.42 767.81C1024.71 766.055 1025.88 765.178 1026.47 764.885L1037.29 758.158C1038.46 757.281 1039.63 756.696 1040.21 756.696C1045.48 756.696 1050.45 774.83 1051.62 781.265C1059.22 773.075 1069.75 756.696 1086.72 756.696C1093.45 756.696 1101.05 759.036 1101.05 761.668C1101.05 762.253 1100.47 763.13 1100.17 764.008L1093.74 778.925C1093.45 779.51 1093.15 780.972 1091.98 780.972C1090.52 780.972 1087.89 778.34 1082.33 778.34C1072.09 778.34 1061.86 793.549 1054.84 801.154Z" fill="#424B52"/>
<path d="M981.747 797.644V854.972C981.747 873.399 982.625 876.032 985.257 884.221C986.427 887.731 990.522 893.289 990.522 895.043C990.522 896.213 989.059 896.798 987.889 897.383L976.482 904.403C975.312 904.988 974.727 905.281 974.142 905.281C969.755 905.281 964.49 889.779 963.028 885.684C959.518 888.901 945.186 905.281 920.909 905.281C897.802 905.281 882.885 890.071 882.885 864.04C882.885 814.609 941.383 813.731 959.518 813.146V802.617C959.518 785.652 954.253 776.292 933.486 776.292C913.889 776.292 900.435 785.652 897.802 785.652C896.925 785.652 896.047 785.067 895.755 784.19L891.953 773.953C891.368 772.49 891.075 771.613 891.075 770.15C891.075 765.178 917.984 756.696 936.704 756.696C970.34 756.696 981.747 773.075 981.747 797.644ZM959.518 869.012V831.281C946.648 831.573 904.822 831.573 904.822 862.285C904.822 873.984 911.257 887.146 926.174 887.146C941.383 887.146 954.838 873.107 959.518 869.012Z" fill="#424B52"/>
<path d="M864.813 885.099L868.615 895.921C868.907 896.506 869.2 897.383 869.2 897.968C869.2 901.186 855.161 905.281 844.338 905.281C830.006 905.281 820.354 899.431 816.844 891.241C812.749 881.589 812.749 859.067 812.749 848.83V697.028C812.749 694.98 813.627 693.81 814.797 693.518L829.421 690.008C831.761 689.423 830.884 689.715 832.931 689.423C834.979 689.423 834.979 691.763 834.979 693.225V849.415C834.979 858.482 835.271 873.399 835.856 876.909C836.441 880.126 839.073 887.146 847.556 887.146C855.16 887.146 860.718 883.344 862.765 883.344C864.52 883.344 864.52 884.221 864.813 885.099Z" fill="#424B52"/>
<path d="M786.195 885.099L789.997 895.921C790.289 896.506 790.582 897.383 790.582 897.968C790.582 901.186 776.542 905.281 765.72 905.281C751.388 905.281 741.736 899.431 738.226 891.241C734.131 881.589 734.131 859.067 734.131 848.83V697.028C734.131 694.98 735.009 693.81 736.179 693.518L750.803 690.008C753.143 689.423 752.266 689.715 754.313 689.423C756.361 689.423 756.361 691.763 756.361 693.225V849.415C756.361 858.482 756.653 873.399 757.238 876.909C757.823 880.126 760.455 887.146 768.938 887.146C776.542 887.146 782.1 883.344 784.147 883.344C785.902 883.344 785.902 884.221 786.195 885.099Z" fill="#424B52"/>
<path d="M683.437 765.178V897.676C683.437 900.016 682.267 901.186 679.927 901.186H664.717C662.377 901.186 661.208 900.016 661.208 897.676V778.925H638.393C636.053 778.925 634.883 777.755 634.883 775.415V764.3C634.883 761.96 636.053 760.79 638.393 760.79H679.634C682.852 760.79 683.437 762.545 683.437 765.178ZM688.702 709.312C688.702 718.964 680.804 727.154 670.86 727.154C660.915 727.154 653.018 719.257 653.018 709.312C653.018 699.368 660.915 691.47 670.86 691.47C680.804 691.47 688.702 699.66 688.702 709.312Z" fill="#424B52"/>
<path d="M579.603 870.767V764.3C579.603 762.253 580.48 761.083 581.65 760.791L596.275 757.281C598.615 756.696 597.737 756.988 599.785 756.696C601.832 756.696 601.832 759.036 601.832 760.498V864.624C601.832 871.352 602.125 877.787 605.049 883.929C606.804 887.439 610.607 893.289 610.607 895.043C610.607 896.213 609.144 896.798 607.974 897.383L596.567 904.403C595.397 904.988 594.812 905.281 594.227 905.281C589.84 905.281 586.623 894.751 583.405 888.024C575.215 894.751 559.421 905.281 542.749 905.281C503.263 905.281 500.046 882.466 500.046 861.407V764.3C500.046 762.253 500.923 761.083 502.093 760.791L516.717 757.281C519.057 756.696 518.18 756.988 520.227 756.696C522.275 756.696 522.275 759.036 522.275 760.498V861.992C522.275 874.569 527.247 885.684 546.259 885.684C555.326 885.684 574.045 876.032 579.603 870.767Z" fill="#424B52"/>
<path d="M433.228 868.719V787.7C427.378 784.19 417.433 776.292 404.563 776.292C379.117 776.292 373.559 804.079 373.559 828.648C373.559 857.02 377.947 885.684 401.639 885.684C415.093 885.684 424.745 876.032 433.228 868.719ZM455.457 797.352V955.004C455.457 957.051 454.579 958.221 453.409 958.514L438.785 962.024C436.445 962.609 437.322 962.316 435.275 962.609C433.228 962.609 433.228 960.269 433.228 958.806V888.024C425.915 894.166 414.216 905.281 397.544 905.281C363.03 905.281 349.575 870.182 349.575 828.063C349.575 791.794 366.54 756.696 403.394 756.696C421.235 756.696 433.812 766.64 439.077 770.735C441.71 766.348 444.927 756.696 447.852 756.696C448.729 756.696 449.607 757.281 450.777 757.866L461.014 763.715C462.477 764.593 463.354 765.178 463.354 766.348C463.354 768.395 459.844 773.953 458.089 779.51C456.334 785.36 455.457 789.747 455.457 797.352Z" fill="#424B52"/>
<path d="M308.951 797.644V854.972C308.951 873.399 309.829 876.032 312.461 884.221C313.631 887.731 317.726 893.289 317.726 895.043C317.726 896.213 316.263 896.798 315.093 897.383L303.686 904.403C302.516 904.988 301.931 905.281 301.346 905.281C296.959 905.281 291.694 889.779 290.232 885.684C286.722 888.901 272.39 905.281 248.113 905.281C225.007 905.281 210.09 890.071 210.09 864.04C210.09 814.609 268.588 813.731 286.722 813.146V802.617C286.722 785.652 281.457 776.292 260.69 776.292C241.093 776.292 227.639 785.652 225.007 785.652C224.129 785.652 223.252 785.067 222.959 784.19L219.157 773.953C218.572 772.49 218.279 771.613 218.279 770.15C218.279 765.178 245.188 756.696 263.908 756.696C297.544 756.696 308.951 773.075 308.951 797.644ZM286.722 869.012V831.281C273.852 831.573 232.026 831.573 232.026 862.285C232.026 873.984 238.461 887.146 253.378 887.146C268.588 887.146 282.042 873.107 286.722 869.012Z" fill="#424B52"/>
<path d="M174.184 704.632V851.755C174.184 886.269 154.002 905.281 120.366 905.281C80.0023 905.281 68.8876 876.324 68.8876 849.123C68.8876 845.613 68.8876 843.858 71.52 843.858H88.777C90.2394 843.858 91.1169 844.443 91.1169 846.783V849.123C91.1169 868.427 97.8442 885.684 120.658 885.684C140.548 885.684 150.2 874.569 150.2 851.755V721.304H99.0141C96.6742 721.304 95.5042 720.134 95.5042 717.794V704.34C95.5042 702 96.6742 700.83 99.0141 700.83H170.089C173.599 700.83 174.184 701.415 174.184 704.632Z" fill="#424B52"/>
<path d="M1416.15 101.638C1416.15 71.7 1440.42 47.4308 1470.36 47.4308H1876.91C1906.84 47.4308 1931.11 71.7 1931.11 101.638V508.187C1931.11 538.125 1906.84 562.394 1876.91 562.394H1470.36C1440.42 562.394 1416.15 538.125 1416.15 508.187V101.638Z" fill="#D0142D"/>
<path d="M1485.04 142.292H1616.04L1684.92 282.326H1553.92L1485.04 142.292Z" fill="white"/>
<path d="M1485.04 467.532H1616.04L1684.92 327.499H1553.92L1485.04 467.532Z" fill="white"/>
<path d="M1662.34 467.532H1793.34L1862.22 327.499H1731.23L1662.34 467.532Z" fill="white"/>
<path d="M1662.34 142.292H1793.34L1862.22 282.326H1731.23L1662.34 142.292Z" fill="white"/>
</svg>
